<?xml version="1.0" encoding="UTF-8" standalone="no"?>
<!-- Created with Inkscape (http://www.inkscape.org/) -->

<svg
   xmlns:dc="http://purl.org/dc/elements/1.1/"
   xmlns:cc="http://creativecommons.org/ns#"
   xmlns:rdf="http://www.w3.org/1999/02/22-rdf-syntax-ns#"
   xmlns:svg="http://www.w3.org/2000/svg"
   xmlns="http://www.w3.org/2000/svg"
   xmlns:sodipodi="http://sodipodi.sourceforge.net/DTD/sodipodi-0.dtd"
   xmlns:inkscape="http://www.inkscape.org/namespaces/inkscape"
   id="svg2"
   version="1.1"
   inkscape:version="0.48.3.1 r9886"
   width="2905.3516"
   height="486.95312"
   xml:space="preserve"
   sodipodi:docname="img_Aggarwal_Taxonomy2.pdf.2015_03_04_12_50_37.0.svg"><metadata
     id="metadata8"><rdf:RDF><cc:Work
         rdf:about=""><dc:format>image/svg+xml</dc:format><dc:type
           rdf:resource="http://purl.org/dc/dcmitype/StillImage" /></cc:Work></rdf:RDF></metadata><defs
     id="defs6" /><sodipodi:namedview
     pagecolor="#ffffff"
     bordercolor="#666666"
     borderopacity="1"
     objecttolerance="10"
     gridtolerance="10"
     guidetolerance="10"
     inkscape:pageopacity="0"
     inkscape:pageshadow="2"
     inkscape:window-width="1366"
     inkscape:window-height="692"
     id="namedview4"
     showgrid="false"
     showguides="true"
     inkscape:guide-bbox="true"
     fit-margin-top="0"
     fit-margin-left="0"
     fit-margin-right="0"
     fit-margin-bottom="0"
     inkscape:zoom="0.28831315"
     inkscape:cx="1292.9286"
     inkscape:cy="361.42911"
     inkscape:window-x="0"
     inkscape:window-y="24"
     inkscape:window-maximized="1"
     inkscape:current-layer="g10" /><g
     id="g10"
     inkscape:groupmode="layer"
     inkscape:label="img_Aggarwal_Taxonomy2"
     transform="matrix(1.25,0,0,-1.25,1.0473633e-5,474.64844)"><g
       id="g3003"><g
         id="g12"><text
   id="text14"
   transform="matrix(1,0,0,-1,991.41558,346.30398)"><tspan
     id="tspan16"
     sodipodi:role="line"
     y="0"
     x="0 24.032 44.32 75.487999 95.103996 115.392 125.536 146.84801 164.448 177.024 185.856 204.76801 213.632 226.17599 245.088 255.26401 276.03201 295.71201 313.31201 332.86401 353.15201 373.44 382.272 394.84799 403.67999 423.23199"
     style="font-size:32px;font-variant:normal;font-weight:normal;writing-mode:lr-tb;fill:#000000;fill-opacity:1;fill-rule:nonzero;stroke:none;font-family:DejaVu Sans;-inkscape-font-specification:DejaVuSans">Human Activity Recognition</tspan><tspan
     id="tspan18"
     sodipodi:role="line"
     y="152.92551"
     x="-689.30756 -669.01959 -660.15558 -639.8996 -619.61157 -610.74756 -591.06757 -579.54761 -570.68359 -551.09961 -532.18756 -512.50757 -499.99557 -480.31558 -460.02759 -449.88358 -430.26758 -409.97958 -389.69159 -377.21158 -357.65958 -338.07559 -320.47559 -300.18759 -280.5076 654.69244 678.72443 687.58844 707.26843 720.42047 740.03644 752.51642 770.11646 790.40442 799.26843 816.86847 836.45245 845.31647 855.46045 875.07648 895.36444 915.65247 928.13245 947.68445 967.26843 984.86847 1005.1564 1024.8364"
     style="font-size:32px;font-variant:normal;font-weight:normal;writing-mode:lr-tb;fill:#000000;fill-opacity:1;fill-rule:nonzero;stroke:none;font-family:DejaVu Sans;-inkscape-font-specification:DejaVuSans">Single-layered approachesHierarchical approaches</tspan><tspan
     id="tspan20"
     sodipodi:role="line"
     y="305.85089"
     x="-993.21246 -970.84442 -951.32446 -931.03644 -918.46045 -909.62842 -889.34045 -869.05243 -849.50043 -829.21246 -812.57245 -802.39642 -782.81244 -762.52448 -742.23645 -729.72443 -710.20447 -690.58844 -672.98846 -652.70044 -633.02045 -229.78387 -209.49586 -189.81587 -169.52788 -149.23987 -129.55988 -109.27187 -96.727875 -87.863869 -68.279869 -59.415871 -49.271873 -29.655872 -9.3678722 10.920128 23.400127 42.952129 62.536129 80.136131 100.42413 120.10413 1132.0731 1156.7131 1176.3931 1193.0331 1210.6332 1223.8171 1232.6492 1252.9371 1265.5131 1274.3451 1293.8971"
     style="font-size:32px;font-variant:normal;font-weight:normal;writing-mode:lr-tb;fill:#000000;fill-opacity:1;fill-rule:nonzero;stroke:none;font-family:DejaVu Sans;-inkscape-font-specification:DejaVuSans">Continuous approachesSequential approachesDescription</tspan><tspan
     id="tspan22"
     sodipodi:role="line"
     y="345.85089"
     x="1169.1356 1180.6556 1200.9436 1220.5596 1237.1996 1256.8796"
     style="font-size:32px;font-variant:normal;font-weight:normal;writing-mode:lr-tb;fill:#000000;fill-opacity:1;fill-rule:nonzero;stroke:none;font-family:DejaVu Sans;-inkscape-font-specification:DejaVuSans">-based</tspan><tspan
     id="tspan24"
     sodipodi:role="line"
     y="305.85089"
     x="769.03217 789.32019 808.23218 828.5202 841.06421 860.68018 878.28021 890.82422 899.68817 384.51492 404.80292 417.34692 436.96292 449.5069 458.37091 475.01093 487.58691 496.41891 514.01892 533.63489"
     style="font-size:32px;font-variant:normal;font-weight:normal;writing-mode:lr-tb;fill:#000000;fill-opacity:1;fill-rule:nonzero;stroke:none;font-family:DejaVu Sans;-inkscape-font-specification:DejaVuSans">SyntacticStatistical</tspan></text>

<g
   transform="matrix(1,0,0,-1,0,370.61652)"
   id="g26"><path
     id="path28"
     style="fill:none;stroke:#000000;stroke-width:0.80000001;stroke-linecap:butt;stroke-linejoin:miter;stroke-miterlimit:4;stroke-opacity:1;stroke-dasharray:none"
     d="M 547.363,139.305 1180.93,35.863 1837.125,142.535"
     inkscape:connector-curvature="0" /></g><g
   transform="matrix(1,0,0,-1,0,370.61652)"
   id="g30"><path
     id="path32"
     style="fill:none;stroke:#000000;stroke-width:0.80000001;stroke-linecap:butt;stroke-linejoin:miter;stroke-miterlimit:4;stroke-opacity:1;stroke-dasharray:none"
     d="M 211.184,300.93 502.109,184.559 941.727,304.16"
     inkscape:connector-curvature="0" /></g><g
   transform="matrix(1,0,0,-1,0,370.61652)"
   id="g34"><path
     id="path36"
     style="fill:none;stroke:#000000;stroke-width:0.80000001;stroke-linecap:butt;stroke-linejoin:miter;stroke-miterlimit:4;stroke-opacity:1;stroke-dasharray:none"
     d="m 1458.926,291.23 378.199,-100.207 3.234,106.672"
     inkscape:connector-curvature="0" /></g><g
   transform="matrix(1,0,0,-1,0,370.61652)"
   id="g38"><path
     id="path40"
     style="fill:none;stroke:#000000;stroke-width:0.80000001;stroke-linecap:butt;stroke-linejoin:miter;stroke-miterlimit:4;stroke-opacity:1;stroke-dasharray:none"
     d="m 1830.66,191.023 374.969,106.672"
     inkscape:connector-curvature="0" /></g></g><path
         sodipodi:nodetypes="ccc"
         transform="matrix(0.8,0,0,-0.8,0,370.61651)"
         inkscape:connector-curvature="0"
         id="path3019"
         d="m 1476.4442,43.881994 590.7932,96.114116 230.8161,37.55068"
         style="fill:none;stroke:#000000;stroke-width:10;stroke-linecap:round;stroke-linejoin:miter;stroke-miterlimit:4;stroke-opacity:1;stroke-dasharray:none" /><path
         transform="matrix(0.8,0,0,-0.8,0,370.61651)"
         inkscape:connector-curvature="0"
         id="path3789"
         d="m 2296.8272,237.63464 459.856,134.89108"
         style="fill:none;stroke:#000000;stroke-width:10;stroke-linecap:butt;stroke-linejoin:miter;stroke-miterlimit:4;stroke-opacity:1;stroke-dasharray:none" /><rect
         transform="scale(1,-1)"
         y="-379.6571"
         x="974.15887"
         height="41.203094"
         width="471.87357"
         id="rect3791"
         style="fill:#fffc16;fill-opacity:0.2557078;stroke:#0d2df2;stroke-width:0;stroke-linecap:round;stroke-miterlimit:4;stroke-opacity:1;stroke-dasharray:none" /><rect
         style="fill:#fffc16;fill-opacity:0.2557078;stroke:#0d2df2;stroke-width:0;stroke-linecap:round;stroke-miterlimit:4;stroke-opacity:1;stroke-dasharray:none"
         id="rect3793"
         width="211.04608"
         height="81.437126"
         x="2113.1982"
         y="-71.658661"
         transform="scale(1,-1)" /><rect
         transform="scale(1,-1)"
         y="-225.44527"
         x="1633.1646"
         height="41.203094"
         width="410.82886"
         id="rect3001"
         style="fill:#fffc16;fill-opacity:0.2557078;stroke:#0d2df2;stroke-width:0;stroke-linecap:round;stroke-miterlimit:4;stroke-opacity:1;stroke-dasharray:none" /></g></g></svg>